<?xml version="1.0" encoding="UTF-8" standalone="no"?>
<!DOCTYPE svg PUBLIC "-//W3C//DTD SVG 1.1//EN"
 "http://www.w3.org/Graphics/SVG/1.1/DTD/svg11.dtd">
<!-- Generated by graphviz version 2.38.0 (20140413.2041)
 -->
<!-- Title: question1a Pages: 1 -->
<svg width="329pt" height="263pt"
 viewBox="0.00 0.00 329.35 263.39" xmlns="http://www.w3.org/2000/svg" xmlns:xlink="http://www.w3.org/1999/xlink">
<g id="graph0" class="graph" transform="scale(1 1) rotate(0) translate(4 259.386)">
<title>question1a</title>
<polygon fill="white" stroke="none" points="-4,4 -4,-259.386 325.348,-259.386 325.348,4 -4,4"/>
<!-- B00 -->
<g id="node1" class="node"><title>B00</title>
<ellipse fill="none" stroke="black" cx="150.348" cy="-230.039" rx="25.1964" ry="25.1964"/>
<text text-anchor="middle" x="150.348" y="-226.339" font-family="Times,serif" font-size="14.00">B00</text>
</g>
<!-- N00 -->
<g id="node2" class="node"><title>N00</title>
<ellipse fill="none" stroke="black" cx="108.348" cy="-127.693" rx="25.9954" ry="25.9954"/>
<text text-anchor="middle" x="108.348" y="-123.993" font-family="Times,serif" font-size="14.00">N00</text>
</g>
<!-- B00&#45;&gt;N00 -->
<g id="edge1" class="edge"><title>B00&#45;&gt;N00</title>
<path fill="none" stroke="black" d="M131.684,-212.672C124.704,-205.447 117.474,-196.394 113.348,-186.691 110.357,-179.657 108.697,-171.718 107.842,-164.022"/>
<polygon fill="black" stroke="black" points="111.316,-163.518 107.127,-153.786 104.333,-164.006 111.316,-163.518"/>
<text text-anchor="middle" x="139.348" y="-175.491" font-family="Times,serif" font-size="14.00">coup noir</text>
</g>
<!-- N01 -->
<g id="node3" class="node"><title>N01</title>
<ellipse fill="none" stroke="black" cx="191.348" cy="-127.693" rx="25.9954" ry="25.9954"/>
<text text-anchor="middle" x="191.348" y="-123.993" font-family="Times,serif" font-size="14.00">N01</text>
</g>
<!-- B00&#45;&gt;N01 -->
<g id="edge2" class="edge"><title>B00&#45;&gt;N01</title>
<path fill="none" stroke="black" d="M159.651,-206.269C165.026,-193.114 171.883,-176.333 177.843,-161.746"/>
<polygon fill="black" stroke="black" points="181.254,-162.65 181.797,-152.069 174.774,-160.003 181.254,-162.65"/>
<text text-anchor="middle" x="199.348" y="-175.491" font-family="Times,serif" font-size="14.00">coup noir</text>
</g>
<!-- B10 -->
<g id="node4" class="node"><title>B10</title>
<ellipse fill="none" stroke="black" cx="25.3478" cy="-25.3478" rx="25.1964" ry="25.1964"/>
<text text-anchor="middle" x="25.3478" y="-21.6478" font-family="Times,serif" font-size="14.00">B10</text>
</g>
<!-- N00&#45;&gt;B10 -->
<g id="edge3" class="edge"><title>N00&#45;&gt;B10</title>
<path fill="none" stroke="black" d="M85.0588,-115.938C71.4643,-108.592 54.9541,-97.6597 44.3478,-83.6955 39.116,-76.8074 35.2833,-68.4059 32.4911,-60.1808"/>
<polygon fill="black" stroke="black" points="35.7746,-58.9424 29.5772,-50.3492 29.0631,-60.9315 35.7746,-58.9424"/>
<text text-anchor="middle" x="74.3478" y="-72.4955" font-family="Times,serif" font-size="14.00">coup blanc</text>
</g>
<!-- B11 -->
<g id="node5" class="node"><title>B11</title>
<ellipse fill="none" stroke="black" cx="108.348" cy="-25.3478" rx="25.1964" ry="25.1964"/>
<text text-anchor="middle" x="108.348" y="-21.6478" font-family="Times,serif" font-size="14.00">B11</text>
</g>
<!-- N00&#45;&gt;B11 -->
<g id="edge4" class="edge"><title>N00&#45;&gt;B11</title>
<path fill="none" stroke="black" d="M108.348,-101.631C108.348,-89.3549 108.348,-74.377 108.348,-61.0233"/>
<polygon fill="black" stroke="black" points="111.848,-60.7446 108.348,-50.7447 104.848,-60.7447 111.848,-60.7446"/>
<text text-anchor="middle" x="138.348" y="-72.4955" font-family="Times,serif" font-size="14.00">coup blanc</text>
</g>
<!-- B12 -->
<g id="node6" class="node"><title>B12</title>
<ellipse fill="none" stroke="black" cx="191.348" cy="-25.3478" rx="25.1964" ry="25.1964"/>
<text text-anchor="middle" x="191.348" y="-21.6478" font-family="Times,serif" font-size="14.00">B12</text>
</g>
<!-- N01&#45;&gt;B12 -->
<g id="edge5" class="edge"><title>N01&#45;&gt;B12</title>
<path fill="none" stroke="black" d="M191.348,-101.631C191.348,-89.3549 191.348,-74.377 191.348,-61.0233"/>
<polygon fill="black" stroke="black" points="194.848,-60.7446 191.348,-50.7447 187.848,-60.7447 194.848,-60.7446"/>
<text text-anchor="middle" x="221.348" y="-72.4955" font-family="Times,serif" font-size="14.00">coup blanc</text>
</g>
<!-- B13 -->
<g id="node7" class="node"><title>B13</title>
<ellipse fill="none" stroke="black" cx="274.348" cy="-25.3478" rx="25.1964" ry="25.1964"/>
<text text-anchor="middle" x="274.348" y="-21.6478" font-family="Times,serif" font-size="14.00">B13</text>
</g>
<!-- N01&#45;&gt;B13 -->
<g id="edge6" class="edge"><title>N01&#45;&gt;B13</title>
<path fill="none" stroke="black" d="M214.206,-115.009C226.909,-107.531 242.159,-96.7814 252.348,-83.6955 257.81,-76.6803 262.048,-68.1517 265.279,-59.8396"/>
<polygon fill="black" stroke="black" points="268.623,-60.8798 268.624,-50.285 262.016,-58.5671 268.623,-60.8798"/>
<text text-anchor="middle" x="291.348" y="-72.4955" font-family="Times,serif" font-size="14.00">coup blanc</text>
</g>
</g>
</svg>
