<?xml version="1.0" encoding="UTF-8" standalone="no"?>
<!DOCTYPE svg PUBLIC "-//W3C//DTD SVG 1.1//EN"
 "http://www.w3.org/Graphics/SVG/1.1/DTD/svg11.dtd">
<!-- Generated by graphviz version 2.38.0 (20140413.2041)
 -->
<!-- Title: question2b Pages: 1 -->
<svg width="132pt" height="240pt"
 viewBox="0.00 0.00 132.30 239.89" xmlns="http://www.w3.org/2000/svg" xmlns:xlink="http://www.w3.org/1999/xlink">
<g id="graph0" class="graph" transform="scale(1 1) rotate(0) translate(4 235.886)">
<title>question2b</title>
<polygon fill="white" stroke="none" points="-4,4 -4,-235.886 128.295,-235.886 128.295,4 -4,4"/>
<!-- C_1 -->
<g id="node1" class="node"><title>C_1</title>
<ellipse fill="none" stroke="black" cx="25.3478" cy="-203.938" rx="25.1964" ry="25.1964"/>
<text text-anchor="middle" x="25.3478" y="-200.238" font-family="Times,serif" font-size="14.00">C_1</text>
</g>
<!-- B_R -->
<g id="node2" class="node"><title>B_R</title>
<ellipse fill="none" stroke="black" cx="60.3478" cy="-113.343" rx="26.7961" ry="26.7961"/>
<text text-anchor="middle" x="60.3478" y="-109.643" font-family="Times,serif" font-size="14.00">B_R</text>
</g>
<!-- C_1&#45;&gt;B_R -->
<g id="edge1" class="edge"><title>C_1&#45;&gt;B_R</title>
<path fill="none" stroke="black" d="M34.3611,-180.123C38.2379,-170.309 42.8479,-158.64 47.1011,-147.874"/>
<polygon fill="black" stroke="black" points="50.4564,-148.907 50.8755,-138.32 43.946,-146.335 50.4564,-148.907"/>
</g>
<!-- C_2 -->
<g id="node3" class="node"><title>C_2</title>
<ellipse fill="none" stroke="black" cx="60.3478" cy="-25.3478" rx="25.1964" ry="25.1964"/>
<text text-anchor="middle" x="60.3478" y="-21.6478" font-family="Times,serif" font-size="14.00">C_2</text>
</g>
<!-- B_R&#45;&gt;C_2 -->
<g id="edge2" class="edge"><title>B_R&#45;&gt;C_2</title>
<path fill="none" stroke="black" d="M60.3478,-86.5417C60.3478,-78.5223 60.3478,-69.5475 60.3478,-61.0259"/>
<polygon fill="black" stroke="black" points="63.8479,-60.951 60.3478,-50.951 56.8479,-60.951 63.8479,-60.951"/>
</g>
<!-- G_G -->
<g id="node4" class="node"><title>G_G</title>
<ellipse fill="none" stroke="black" cx="96.3478" cy="-203.938" rx="27.8951" ry="27.8951"/>
<text text-anchor="middle" x="96.3478" y="-200.238" font-family="Times,serif" font-size="14.00">G_G</text>
</g>
<!-- G_G&#45;&gt;B_R -->
<g id="edge3" class="edge"><title>G_G&#45;&gt;B_R</title>
<path fill="none" stroke="black" d="M86.1279,-177.787C82.3157,-168.406 77.9269,-157.605 73.8637,-147.606"/>
<polygon fill="black" stroke="black" points="77.1044,-146.283 70.0973,-138.337 70.6193,-148.918 77.1044,-146.283"/>
</g>
</g>
</svg>
