<?xml version="1.0" encoding="UTF-8" standalone="no"?>
<!DOCTYPE svg PUBLIC "-//W3C//DTD SVG 1.1//EN"
 "http://www.w3.org/Graphics/SVG/1.1/DTD/svg11.dtd">
<!-- Generated by graphviz version 2.38.0 (20140413.2041)
 -->
<!-- Title: quesiton3c Pages: 1 -->
<svg width="184pt" height="461pt"
 viewBox="0.00 0.00 184.44 460.98" xmlns="http://www.w3.org/2000/svg" xmlns:xlink="http://www.w3.org/1999/xlink">
<g id="graph0" class="graph" transform="scale(1 1) rotate(0) translate(4 456.976)">
<title>quesiton3c</title>
<polygon fill="white" stroke="none" points="-4,4 -4,-456.976 180.442,-456.976 180.442,4 -4,4"/>
<!-- R1 -->
<g id="node1" class="node"><title>R1</title>
<polygon fill="none" stroke="black" points="66.0957,-36 30.0957,-36 30.0957,-0 66.0957,-0 66.0957,-36"/>
<text text-anchor="middle" x="48.0957" y="-14.3" font-family="Times,serif" font-size="14.00">R1</text>
</g>
<!-- R2 -->
<g id="node2" class="node"><title>R2</title>
<polygon fill="none" stroke="black" points="156.096,-36 120.096,-36 120.096,-0 156.096,-0 156.096,-36"/>
<text text-anchor="middle" x="138.096" y="-14.3" font-family="Times,serif" font-size="14.00">R2</text>
</g>
<!-- x_N_2 -->
<g id="node3" class="node"><title>x_N_2</title>
<ellipse fill="none" stroke="black" cx="138.096" cy="-194.442" rx="38.1938" ry="38.1938"/>
<text text-anchor="middle" x="138.096" y="-190.742" font-family="Times,serif" font-size="14.00">x_(N/2)</text>
</g>
<!-- x_1 -->
<g id="node8" class="node"><title>x_1</title>
<ellipse fill="none" stroke="black" cx="138.096" cy="-96.0479" rx="24.0958" ry="24.0958"/>
<text text-anchor="middle" x="138.096" y="-92.3479" font-family="Times,serif" font-size="14.00">x_1</text>
</g>
<!-- x_N_2&#45;&gt;x_1 -->
<g id="edge6" class="edge"><title>x_N_2&#45;&gt;x_1</title>
<path fill="none" stroke="black" d="M138.096,-155.898C138.096,-147.423 138.096,-138.486 138.096,-130.207"/>
<polygon fill="black" stroke="black" points="141.596,-130.156 138.096,-120.156 134.596,-130.156 141.596,-130.156"/>
</g>
<!-- x_N_2_1 -->
<g id="node4" class="node"><title>x_N_2_1</title>
<ellipse fill="none" stroke="black" cx="48.0957" cy="-316.885" rx="48.1917" ry="48.1917"/>
<text text-anchor="middle" x="48.0957" y="-313.185" font-family="Times,serif" font-size="14.00">x_(N/2+1)</text>
</g>
<!-- a_N -->
<g id="node6" class="node"><title>a_N</title>
<ellipse fill="none" stroke="black" cx="48.0957" cy="-194.442" rx="25.1964" ry="25.1964"/>
<text text-anchor="middle" x="48.0957" y="-190.742" font-family="Times,serif" font-size="14.00">a_N</text>
</g>
<!-- x_N_2_1&#45;&gt;a_N -->
<g id="edge3" class="edge"><title>x_N_2_1&#45;&gt;a_N</title>
<path fill="none" stroke="black" d="M48.0957,-268.628C48.0957,-255.783 48.0957,-242.112 48.0957,-230.105"/>
<polygon fill="black" stroke="black" points="51.5958,-230.045 48.0957,-220.045 44.5958,-230.045 51.5958,-230.045"/>
</g>
<!-- a_1 -->
<g id="node5" class="node"><title>a_1</title>
<ellipse fill="none" stroke="black" cx="48.0957" cy="-96.0479" rx="23.2963" ry="23.2963"/>
<text text-anchor="middle" x="48.0957" y="-92.3479" font-family="Times,serif" font-size="14.00">a_1</text>
</g>
<!-- a_1&#45;&gt;R1 -->
<g id="edge1" class="edge"><title>a_1&#45;&gt;R1</title>
<path fill="none" stroke="black" d="M48.0957,-72.6423C48.0957,-64.5095 48.0957,-55.223 48.0957,-46.6882"/>
<polygon fill="black" stroke="black" points="51.5958,-46.423 48.0957,-36.4231 44.5958,-46.4231 51.5958,-46.423"/>
</g>
<!-- a_N&#45;&gt;a_1 -->
<g id="edge2" class="edge"><title>a_N&#45;&gt;a_1</title>
<path fill="none" stroke="black" d="M48.0957,-168.869C48.0957,-157.015 48.0957,-142.63 48.0957,-129.855"/>
<polygon fill="black" stroke="black" points="51.5958,-129.595 48.0957,-119.595 44.5958,-129.595 51.5958,-129.595"/>
</g>
<!-- x_N -->
<g id="node7" class="node"><title>x_N</title>
<ellipse fill="none" stroke="black" cx="48.0957" cy="-426.978" rx="25.9954" ry="25.9954"/>
<text text-anchor="middle" x="48.0957" y="-423.278" font-family="Times,serif" font-size="14.00">x_N</text>
</g>
<!-- x_N&#45;&gt;x_N_2_1 -->
<g id="edge4" class="edge"><title>x_N&#45;&gt;x_N_2_1</title>
<path fill="none" stroke="black" d="M48.0957,-400.908C48.0957,-393.204 48.0957,-384.386 48.0957,-375.439"/>
<polygon fill="black" stroke="black" points="51.5958,-375.335 48.0957,-365.335 44.5958,-375.335 51.5958,-375.335"/>
</g>
<!-- x_1&#45;&gt;R2 -->
<g id="edge5" class="edge"><title>x_1&#45;&gt;R2</title>
<path fill="none" stroke="black" d="M138.096,-71.8178C138.096,-63.7096 138.096,-54.5382 138.096,-46.1403"/>
<polygon fill="black" stroke="black" points="141.596,-46.0547 138.096,-36.0548 134.596,-46.0548 141.596,-46.0547"/>
</g>
<!-- b_1 -->
<g id="node9" class="node"><title>b_1</title>
<ellipse fill="none" stroke="black" cx="138.096" cy="-316.885" rx="24.0958" ry="24.0958"/>
<text text-anchor="middle" x="138.096" y="-313.185" font-family="Times,serif" font-size="14.00">b_1</text>
</g>
<!-- b_1&#45;&gt;x_N_2 -->
<g id="edge7" class="edge"><title>b_1&#45;&gt;x_N_2</title>
<path fill="none" stroke="black" d="M138.096,-292.662C138.096,-278.623 138.096,-260.204 138.096,-243.178"/>
<polygon fill="black" stroke="black" points="141.596,-242.808 138.096,-232.808 134.596,-242.809 141.596,-242.808"/>
</g>
<!-- b_N -->
<g id="node10" class="node"><title>b_N</title>
<ellipse fill="none" stroke="black" cx="138.096" cy="-426.978" rx="25.9954" ry="25.9954"/>
<text text-anchor="middle" x="138.096" y="-423.278" font-family="Times,serif" font-size="14.00">b_N</text>
</g>
<!-- b_N&#45;&gt;b_1 -->
<g id="edge8" class="edge"><title>b_N&#45;&gt;b_1</title>
<path fill="none" stroke="black" d="M138.096,-400.908C138.096,-386.071 138.096,-367.098 138.096,-351.036"/>
<polygon fill="black" stroke="black" points="141.596,-350.974 138.096,-340.974 134.596,-350.974 141.596,-350.974"/>
</g>
</g>
</svg>
