<?xml version="1.0" encoding="UTF-8" standalone="no"?>
<!DOCTYPE svg PUBLIC "-//W3C//DTD SVG 1.1//EN"
 "http://www.w3.org/Graphics/SVG/1.1/DTD/svg11.dtd">
<!-- Generated by graphviz version 2.38.0 (20140413.2041)
 -->
<!-- Title: finite_state_machine Pages: 1 -->
<svg width="170pt" height="517pt"
 viewBox="0.00 0.00 170.49 517.07" xmlns="http://www.w3.org/2000/svg" xmlns:xlink="http://www.w3.org/1999/xlink">
<g id="graph0" class="graph" transform="scale(1 1) rotate(0) translate(4 513.069)">
<title>finite_state_machine</title>
<polygon fill="white" stroke="none" points="-4,4 -4,-513.069 166.486,-513.069 166.486,4 -4,4"/>
<!-- fifo_vide -->
<g id="node1" class="node"><title>fifo_vide</title>
<ellipse fill="none" stroke="black" cx="81.2428" cy="-466.173" rx="42.7926" ry="42.7926"/>
<text text-anchor="middle" x="81.2428" y="-462.473" font-family="Times,serif" font-size="14.00">fifo_vide</text>
</g>
<!-- fifo_entre_les_deux -->
<g id="node2" class="node"><title>fifo_entre_les_deux</title>
<ellipse fill="none" stroke="black" cx="81.2428" cy="-261.034" rx="81.4863" ry="81.4863"/>
<text text-anchor="middle" x="81.2428" y="-257.334" font-family="Times,serif" font-size="14.00">fifo_entre_les_deux</text>
</g>
<!-- fifo_vide&#45;&gt;fifo_entre_les_deux -->
<g id="edge1" class="edge"><title>fifo_vide&#45;&gt;fifo_entre_les_deux</title>
<path fill="none" stroke="black" d="M57.5483,-430.37C53.2956,-422.446 49.5017,-413.832 47.2428,-405.277 42.1911,-386.144 43.3045,-365.483 47.3161,-345.968"/>
<polygon fill="black" stroke="black" points="50.7346,-346.719 49.5818,-336.188 43.9152,-345.14 50.7346,-346.719"/>
<text text-anchor="middle" x="71.2428" y="-379.077" font-family="Times,serif" font-size="14.00">write=&#39;1&#39;</text>
</g>
<!-- fifo_entre_les_deux&#45;&gt;fifo_vide -->
<g id="edge2" class="edge"><title>fifo_entre_les_deux&#45;&gt;fifo_vide</title>
<path fill="none" stroke="black" d="M95.0018,-341.267C96.9744,-362.105 97.6329,-384.55 95.2428,-405.277 94.8932,-408.309 94.4472,-411.41 93.9306,-414.527"/>
<polygon fill="black" stroke="black" points="90.4684,-414.001 92.0724,-424.474 97.3494,-415.287 90.4684,-414.001"/>
<text text-anchor="middle" x="120.743" y="-394.077" font-family="Times,serif" font-size="14.00">nb_elt=1</text>
<text text-anchor="middle" x="120.743" y="-379.077" font-family="Times,serif" font-size="14.00">write=&#39;0&#39;</text>
<text text-anchor="middle" x="120.743" y="-364.077" font-family="Times,serif" font-size="14.00">read=&#39;1&#39;</text>
</g>
<!-- fifo_pleine -->
<g id="node3" class="node"><title>fifo_pleine</title>
<ellipse fill="none" stroke="black" cx="81.2428" cy="-49.3956" rx="49.2915" ry="49.2915"/>
<text text-anchor="middle" x="81.2428" y="-45.6956" font-family="Times,serif" font-size="14.00">fifo_pleine</text>
</g>
<!-- fifo_entre_les_deux&#45;&gt;fifo_pleine -->
<g id="edge3" class="edge"><title>fifo_entre_les_deux&#45;&gt;fifo_pleine</title>
<path fill="none" stroke="black" d="M37.7395,-192.41C27.5587,-168.564 21.8362,-141.536 30.2428,-116.791 32.8728,-109.05 36.8093,-101.505 41.3512,-94.4437"/>
<polygon fill="black" stroke="black" points="44.54,-95.9884 47.3753,-85.78 38.7928,-91.9922 44.54,-95.9884"/>
<text text-anchor="middle" x="70.7428" y="-150.591" font-family="Times,serif" font-size="14.00">nb_elt=taille&#45;1</text>
<text text-anchor="middle" x="70.7428" y="-135.591" font-family="Times,serif" font-size="14.00">write=&#39;1&#39;</text>
<text text-anchor="middle" x="70.7428" y="-120.591" font-family="Times,serif" font-size="14.00">read=&#39;0&#39;</text>
</g>
<!-- fifo_pleine&#45;&gt;fifo_entre_les_deux -->
<g id="edge4" class="edge"><title>fifo_pleine&#45;&gt;fifo_entre_les_deux</title>
<path fill="none" stroke="black" d="M103.825,-93.4239C106.895,-101.024 109.565,-109.001 111.243,-116.791 115.275,-135.51 114.334,-155.622 110.997,-174.684"/>
<polygon fill="black" stroke="black" points="107.554,-174.055 109.048,-184.544 114.421,-175.413 107.554,-174.055"/>
<text text-anchor="middle" x="137.243" y="-143.091" font-family="Times,serif" font-size="14.00">write=&#39;&#39;0</text>
<text text-anchor="middle" x="137.243" y="-128.091" font-family="Times,serif" font-size="14.00">read=&#39;1&#39;</text>
</g>
</g>
</svg>
