<?xml version="1.0" encoding="UTF-8" standalone="no"?>
<!DOCTYPE svg PUBLIC "-//W3C//DTD SVG 1.1//EN"
 "http://www.w3.org/Graphics/SVG/1.1/DTD/svg11.dtd">
<!-- Generated by graphviz version 2.38.0 (20140413.2041)
 -->
<!-- Title: structs Pages: 1 -->
<svg width="558pt" height="132pt"
 viewBox="0.00 0.00 558.00 132.00" xmlns="http://www.w3.org/2000/svg" xmlns:xlink="http://www.w3.org/1999/xlink">
<g id="graph0" class="graph" transform="scale(1 1) rotate(0) translate(4 128)">
<title>structs</title>
<polygon fill="white" stroke="none" points="-4,4 -4,-128 554,-128 554,4 -4,4"/>
<!-- memoire -->
<g id="node1" class="node"><title>memoire</title>
<polygon fill="none" stroke="black" points="85,-0.5 85,-36.5 148,-36.5 148,-0.5 85,-0.5"/>
<text text-anchor="middle" x="95" y="-14.8" font-family="Times,serif" font-size="14.00"> </text>
<polyline fill="none" stroke="black" points="105,-0.5 105,-36.5 "/>
<text text-anchor="middle" x="116.5" y="-14.8" font-family="Times,serif" font-size="14.00">3</text>
<polyline fill="none" stroke="black" points="128,-0.5 128,-36.5 "/>
<text text-anchor="middle" x="138" y="-14.8" font-family="Times,serif" font-size="14.00"> </text>
</g>
<!-- p_ecriture -->
<g id="node2" class="node"><title>p_ecriture</title>
<ellipse fill="none" stroke="black" cx="299.5" cy="-106" rx="46.2923" ry="18"/>
<text text-anchor="middle" x="299.5" y="-102.3" font-family="Times,serif" font-size="14.00">p_ecriture</text>
</g>
<!-- p_lecture -->
<g id="node3" class="node"><title>p_lecture</title>
<ellipse fill="none" stroke="black" cx="407.5" cy="-106" rx="43.5923" ry="18"/>
<text text-anchor="middle" x="407.5" y="-102.3" font-family="Times,serif" font-size="14.00">p_lecture</text>
</g>
<!-- u_ecriture -->
<g id="node4" class="node"><title>u_ecriture</title>
<text text-anchor="middle" x="35.5" y="-102.3" font-family="Times,serif" font-size="14.00">u_ecriture</text>
</g>
<!-- u_ecriture&#45;&gt;memoire -->
<g id="edge1" class="edge"><title>u_ecriture&#45;&gt;memoire</title>
<path fill="none" stroke="black" d="M51.8916,-87.6978C63.7489,-75.1817 79.941,-58.0901 93.1487,-44.1486"/>
<polygon fill="black" stroke="black" points="95.7962,-46.4431 100.133,-36.7765 90.7145,-41.6289 95.7962,-46.4431"/>
</g>
<!-- i_lec -->
<g id="node5" class="node"><title>i_lec</title>
<text text-anchor="middle" x="116.5" y="-102.3" font-family="Times,serif" font-size="14.00">i_lec</text>
</g>
<!-- i_lec&#45;&gt;memoire -->
<g id="edge2" class="edge"><title>i_lec&#45;&gt;memoire</title>
<path fill="none" stroke="black" d="M116.5,-87.6978C116.5,-75.993 116.5,-60.2864 116.5,-46.897"/>
<polygon fill="black" stroke="black" points="120,-46.7764 116.5,-36.7765 113,-46.7765 120,-46.7764"/>
</g>
<!-- data_in -->
<g id="node6" class="node"><title>data_in</title>
<polygon fill="none" stroke="black" points="235.5,-124 161.5,-124 161.5,-88 235.5,-88 235.5,-124"/>
<text text-anchor="middle" x="198.5" y="-102.3" font-family="Times,serif" font-size="14.00">data_in : 7</text>
</g>
<!-- data_in&#45;&gt;memoire -->
<g id="edge3" class="edge"><title>data_in&#45;&gt;memoire</title>
<path fill="none" stroke="black" d="M181.906,-87.6978C169.902,-75.1817 153.51,-58.0901 140.14,-44.1486"/>
<polygon fill="black" stroke="black" points="142.517,-41.5711 133.069,-36.7765 137.465,-46.4164 142.517,-41.5711"/>
<text text-anchor="middle" x="225.5" y="-58.8" font-family="Times,serif" font-size="14.00">fifo(i_ecr) &lt;= data_in</text>
</g>
<!-- data_out -->
<g id="node7" class="node"><title>data_out</title>
<polygon fill="none" stroke="black" points="550,-124 469,-124 469,-88 550,-88 550,-124"/>
<text text-anchor="middle" x="509.5" y="-102.3" font-family="Times,serif" font-size="14.00">data_out : 3</text>
</g>
</g>
</svg>
